{
  "source": "C:\\Users\\Peter\\Desktop\\stuff\\MIUN\\quantitative_research\\video_compression\\videos\\BVI-HD\\BVI-HD_CDVL_videos\\ORIG\\Music_1920x1080_30fps.mp4",
  "output": "C:\\Users\\Peter\\Desktop\\stuff\\MIUN\\quantitative_research\\video_compression\\compressed_videos\\BVI-HD\\vp9\\2\\Music_1920x1080_30fps_vp9.webm",
  "codec": "vp9",
  "ok": "Input #0, mov,mp4,m4a,3gp,3g2,mj2, from 'C:\\Users\\Peter\\Desktop\\stuff\\MIUN\\quantitative_research\\video_compression\\videos\\BVI-HD\\BVI-HD_CDVL_videos\\ORIG\\Music_1920x1080_30fps.mp4':\n  Metadata:\n    major_brand     : isom\n    minor_version   : 512\n    compatible_brands: isomiso2avc1mp41\n    encoder         : Lavf54.28.101\n  Duration: 00:00:05.00, start: 0.000000, bitrate: 192710 kb/s\n  Stream #0:0[0x1](und): Video: h264 (High 4:4:4 Predictive) (avc1 / 0x31637661), yuv420p(progressive), 1920x1080, 192707 kb/s, 30 fps, 30 tbr, 30 tbn (default)\n    Metadata:\n      handler_name    : VideoHandler\n      vendor_id       : [0][0][0][0]\n[out#0/webm @ 00000136d5a1dac0] Codec AVOption b:a (set bitrate (in bits/s)) has not been used for any stream. The most likely reason is either wrong type (e.g. a video option with no video streams) or that it is a private option of some decoder which was not actually used for any stream.\nStream mapping:\n  Stream #0:0 -> #0:0 (h264 (native) -> vp9 (libvpx-vp9))\nPress [q] to stop, [?] for help\n[libvpx-vp9 @ 00000136d5a907c0] v1.15.2-100-g40561f514\nOutput #0, webm, to 'C:\\Users\\Peter\\Desktop\\stuff\\MIUN\\quantitative_research\\video_compression\\compressed_videos\\BVI-HD\\vp9\\2\\Music_1920x1080_30fps_vp9.webm':\n  Metadata:\n    major_brand     : isom\n    minor_version   : 512\n    compatible_brands: isomiso2avc1mp41\n    encoder         : Lavf62.3.100\n  Stream #0:0(und): Video: vp9, yuv420p(tv, progressive), 1920x1080, q=2-31, 2000 kb/s, 30 fps, 1k tbn (default)\n    Metadata:\n      encoder         : Lavc62.11.100 libvpx-vp9\n      handler_name    : VideoHandler\n      vendor_id       : [0][0][0][0]\n    Side data:\n      cpb: bitrate max/min/avg: 0/0/0 buffer size: 2000000 vbv_delay: N/A\nframe=    1 fps=0.0 q=24.0 size=       1KiB time=00:00:00.03 bitrate= 152.2kbits/s speed=0.0634x elapsed=0:00:00.52    \nframe=   10 fps=9.5 q=44.0 size=       1KiB time=00:00:00.33 bitrate=  15.2kbits/s speed=0.315x elapsed=0:00:01.05    \nframe=   18 fps= 11 q=41.0 size=       1KiB time=00:00:00.60 bitrate=   8.5kbits/s speed=0.381x elapsed=0:00:01.57    \nframe=   25 fps= 12 q=43.0 size=       1KiB time=00:00:00.83 bitrate=   6.1kbits/s speed=0.398x elapsed=0:00:02.09    \nframe=   31 fps= 12 q=21.0 size=       1KiB time=00:00:01.03 bitrate=   4.9kbits/s speed=0.395x elapsed=0:00:02.61    \nframe=   38 fps= 12 q=51.0 size=       1KiB time=00:00:01.26 bitrate=   4.0kbits/s speed=0.403x elapsed=0:00:03.14    \nframe=   44 fps= 12 q=46.0 size=       1KiB time=00:00:01.46 bitrate=   3.5kbits/s speed= 0.4x elapsed=0:00:03.66    \nframe=   49 fps= 12 q=47.0 size=       1KiB time=00:00:01.63 bitrate=   3.1kbits/s speed=0.389x elapsed=0:00:04.20    \nframe=   55 fps= 12 q=47.0 size=       1KiB time=00:00:01.80 bitrate=   2.8kbits/s speed=0.381x elapsed=0:00:04.73    \nframe=   60 fps= 11 q=48.0 size=       1KiB time=00:00:02.00 bitrate=   2.5kbits/s speed=0.379x elapsed=0:00:05.27    \nframe=   66 fps= 11 q=46.0 size=       1KiB time=00:00:02.20 bitrate=   2.3kbits/s speed=0.379x elapsed=0:00:05.80    \nframe=   71 fps= 11 q=30.0 size=       1KiB time=00:00:02.36 bitrate=   2.1kbits/s speed=0.374x elapsed=0:00:06.33    \nframe=   77 fps= 11 q=46.0 size=       1KiB time=00:00:02.56 bitrate=   2.0kbits/s speed=0.374x elapsed=0:00:06.86    \nframe=   82 fps= 11 q=46.0 size=       1KiB time=00:00:02.73 bitrate=   1.9kbits/s speed=0.37x elapsed=0:00:07.38    \nframe=   88 fps= 11 q=46.0 size=       1KiB time=00:00:02.93 bitrate=   1.7kbits/s speed=0.371x elapsed=0:00:07.91    \nframe=   93 fps= 11 q=46.0 size=       1KiB time=00:00:03.10 bitrate=   1.6kbits/s speed=0.368x elapsed=0:00:08.43    \nframe=   99 fps= 11 q=47.0 size=       1KiB time=00:00:03.30 bitrate=   1.5kbits/s speed=0.368x elapsed=0:00:08.95    \nframe=  104 fps= 11 q=46.0 size=       1KiB time=00:00:03.46 bitrate=   1.5kbits/s speed=0.366x elapsed=0:00:09.47    \nframe=  110 fps= 11 q=48.0 size=       1KiB time=00:00:03.66 bitrate=   1.4kbits/s speed=0.367x elapsed=0:00:09.98    \nframe=  116 fps= 11 q=47.0 size=       1KiB time=00:00:03.86 bitrate=   1.3kbits/s speed=0.367x elapsed=0:00:10.52    \nframe=  121 fps= 11 q=31.0 size=       1KiB time=00:00:04.03 bitrate=   1.3kbits/s speed=0.365x elapsed=0:00:11.03    \nframe=  126 fps= 11 q=47.0 size=       1KiB time=00:00:04.20 bitrate=   1.2kbits/s speed=0.363x elapsed=0:00:11.55    \nframe=  126 fps= 10 q=47.0 size=       1KiB time=00:00:04.20 bitrate=   1.2kbits/s speed=0.348x elapsed=0:00:12.06    \nframe=  126 fps= 10 q=47.0 size=       1KiB time=00:00:04.20 bitrate=   1.2kbits/s speed=0.333x elapsed=0:00:12.59    \nframe=  126 fps=9.6 q=47.0 size=       1KiB time=00:00:04.20 bitrate=   1.2kbits/s speed=0.32x elapsed=0:00:13.12    \n[out#0/webm @ 00000136d5a1dac0] video:972KiB audio:0KiB subtitle:0KiB other streams:0KiB global headers:0KiB muxing overhead: 0.176674%\nframe=  150 fps= 11 q=39.0 Lsize=     974KiB time=00:00:05.00 bitrate=1595.8kbits/s speed=0.373x elapsed=0:00:13.38    \n",
  "seconds": 13.614323139190674,
  "probe_out": {}
}